<svg width="219" height="80" viewBox="0 0 219 80" fill="none" xmlns="http://www.w3.org/2000/svg">
<path d="M105.767 39.0184C103.231 41.8814 98.9775 43.0266 95.2965 41.7996V38.364C93.9059 37.7096 92.8425 36.5644 92.1063 35.0102V14.7239C94.8057 12.0245 99.8773 12.0245 102.986 14.4785C106.094 16.8507 107.076 21.3497 105.358 24.8671L105.521 25.0307C106.421 25.9305 107.239 27.0757 107.73 28.3026C109.121 31.82 108.466 36.1554 105.767 39.0184ZM104.622 26.0123C104.294 25.6851 104.049 25.4397 103.64 25.1943C105.521 22.3313 105.112 18.3231 102.577 15.9509C100.123 13.5787 96.1145 13.3333 93.3333 15.4601V34.8466C93.7423 35.7464 94.3967 36.4826 95.2965 36.9734V16.5235C97.7505 15.2965 100.859 16.1963 102.249 18.5685C103.64 21.0225 102.822 24.2127 100.532 25.6851C104.131 26.9121 106.012 30.6748 104.949 34.274C103.804 37.7914 100.123 39.8364 96.6053 38.9366V40.9816C99.4683 41.5542 102.495 40.5726 104.622 38.5276C107.894 35.0102 107.975 29.4478 104.622 26.0123ZM96.5235 25.0307C99.0593 25.8487 101.677 23.7219 101.595 21.1043C101.513 18.5685 99.0593 16.6871 96.5235 17.3415V25.0307ZM96.5235 26.8303V37.4642C99.0593 38.2822 101.677 37.2188 103.067 35.0102C104.376 32.8016 104.049 30.0204 102.249 28.2208C100.941 26.6667 98.4867 26.2577 96.5235 26.8303Z" fill="#FAF7F2"/>
<path d="M125.726 19.4683V35.7464C125.726 37.6278 124.908 39.5092 123.517 40.7362C122.29 41.7996 120.736 42.3722 118.937 42.3722C117.301 42.3722 115.746 41.8814 114.519 40.7362C113.129 39.5092 112.311 37.6278 112.311 35.7464V19.4683C112.311 17.5869 113.129 15.7055 114.519 14.4785C115.665 13.2515 117.219 12.6789 118.937 12.6789C120.573 12.6789 122.29 13.1697 123.517 14.4785C124.908 15.7055 125.726 17.5051 125.726 19.4683ZM124.499 19.4683C124.499 17.9141 123.845 16.4417 122.699 15.4601C121.8 14.5603 120.409 13.9877 118.937 13.9877C117.546 13.9877 116.401 14.4785 115.337 15.4601C114.192 16.4417 113.538 17.9141 113.538 19.4683V35.7464C113.538 37.3006 114.192 38.773 115.337 39.7546C116.237 40.6544 117.464 41.0634 118.937 41.0634C120.245 41.0634 121.636 40.7362 122.699 39.7546C123.845 38.773 124.499 37.3006 124.499 35.7464V19.4683ZM122.618 19.4683V35.7464C122.618 36.728 122.209 37.6278 121.309 38.364C120.654 38.9366 119.755 39.182 118.937 39.182C118.037 39.182 117.219 38.9366 116.483 38.364C115.746 37.6278 115.337 36.728 115.337 35.7464V19.4683C115.337 18.4867 115.746 17.5869 116.483 16.8507C117.219 16.2781 118.037 16.0327 118.937 16.0327C119.755 16.0327 120.654 16.2781 121.309 16.8507C122.209 17.5051 122.618 18.4049 122.618 19.4683ZM121.227 19.4683C121.227 18.8139 120.982 18.2413 120.491 17.8323C120.082 17.4233 119.509 17.2597 118.937 17.2597C118.364 17.2597 117.791 17.4233 117.301 17.8323C116.81 18.2413 116.564 18.8139 116.564 19.4683V35.7464C116.564 36.4008 116.81 36.9734 117.301 37.3824C117.71 37.7914 118.282 37.955 118.937 37.955C119.509 37.955 120.082 37.7914 120.491 37.3824C120.982 36.9734 121.227 36.4008 121.227 35.7464V19.4683Z" fill="#FAF7F2"/>
<path d="M143.885 12.6789V27.9754V35.3374V35.8282C143.885 37.3824 143.313 39.0184 142.168 40.2454C140.941 41.636 139.059 42.3722 137.26 42.3722C135.46 42.3722 133.579 41.5542 132.352 40.2454C131.697 39.5092 131.288 38.773 130.961 37.8732C130.797 37.3006 130.634 36.6462 130.634 35.8282V35.3374V27.9754V12.6789H131.861V27.9754V35.3374V35.8282C131.861 37.137 132.352 38.364 133.251 39.3456C134.233 40.4908 135.705 41.0634 137.26 41.0634C138.814 41.0634 140.204 40.4908 141.268 39.3456C142.086 38.364 142.577 37.2188 142.658 35.8282V35.3374V27.9754V12.6789H143.885ZM133.824 35.7464V35.3374V27.9754V12.6789H135.051V27.9754V35.3374V35.7464C135.051 36.2372 135.215 36.728 135.624 37.2188C136.033 37.7096 136.605 37.955 137.26 37.955C137.914 37.955 138.487 37.7096 138.896 37.2188C139.305 36.8098 139.386 36.319 139.468 35.7464V35.3374V27.9754V12.6789H140.695V27.9754V35.3374V35.7464C140.695 36.5644 140.286 37.3824 139.795 38.0368C139.141 38.773 138.241 39.182 137.26 39.182C136.278 39.182 135.378 38.773 134.724 38.0368C134.151 37.4642 133.824 36.6462 133.824 35.7464Z" fill="#FAF7F2"/>
<path d="M157.955 32.1472C158.282 31.7382 158.609 31.411 158.937 31.002C161.145 27.8937 161.472 23.8855 160 20.4499C158.528 17.1779 155.419 14.6421 151.82 14.1513L152.802 16.4417C156.155 17.5051 158.609 20.5317 158.937 24.1309C159.264 27.7301 157.219 31.3292 153.947 32.8016V35.0102C154.847 34.683 155.665 34.1922 156.401 33.7014L160.082 42.454H158.609L155.746 35.6646C155.174 35.9918 154.519 36.2372 153.865 36.4826V42.5358H152.556V27.9755L150.511 23.2311V42.3722H149.202V16.6053L155.01 30.4294C155.583 29.8568 156.074 29.2842 156.483 28.7116L149.693 12.6789C151.166 12.6789 152.556 12.8425 153.865 13.2515C157.546 14.4785 160.491 17.4233 161.636 21.1043C162.863 24.9489 162.045 29.2842 159.509 32.4744L163.681 42.3722H162.209L157.955 32.1472ZM157.219 26.9939C158.037 24.2945 157.301 21.3497 155.419 19.4683C154.928 18.9775 154.438 18.5685 153.865 18.3231V19.0593L157.219 26.9939Z" fill="#FAF7F2"/>
<path d="M166.38 12.6789H167.607H167.689L172.924 22.8221L178.078 12.6789H178.323H179.55L173.006 25.6033L166.38 12.6789ZM179.796 16.6053V19.4683V42.3722H178.487V21.9223L176.605 25.7669V42.2904H175.215V28.2208L173.17 32.4744L171.043 28.4662V42.2904H169.816V25.9305L167.771 22.1677V42.2904H166.544V19.6319V16.7689L173.17 29.6932L179.796 16.6053Z" fill="#FAF7F2"/>
<path d="M186.258 13.9059V25.2761H188.221V15.8691H196.564V17.1779H189.53V25.2761H196.564V26.5849H186.258V37.7096H188.221V28.548H196.564V29.8568H189.53V37.7096H196.564V39.0184H189.53V40.9816H196.564V42.2904H184.949V40.9816V12.6789H196.564V13.9877H186.258V13.9059ZM188.221 40.9816V39.0184H186.258V40.9816H188.221Z" fill="#FAF7F2"/>
<path d="M206.298 13.9877H204.908H199.918V12.5971H214.642V13.9877H209.57V15.9509H214.642V17.1779H209.57V42.2086H208.18V17.2597H206.298V42.2904H204.908V17.2597H199.918V16.0327H204.908H206.298H208.18V14.0695H206.298V13.9877Z" fill="#FAF7F2"/>
<path d="M91.6973 75.6646C91.6973 74.7648 92.4335 73.9468 93.4151 73.9468C94.3967 73.9468 95.1329 74.683 95.1329 75.6646C95.1329 76.5644 94.3967 77.3006 93.4151 77.3006C92.4335 77.3006 91.6973 76.5644 91.6973 75.6646Z" fill="#FAF7F2"/>
<path d="M97.8323 79.8364V65.6033H101.022C101.84 65.6033 102.658 65.8487 103.313 66.2577C103.885 66.6667 104.294 67.2393 104.54 68.0573C104.703 68.4663 104.785 68.9571 104.785 69.5296C104.785 70.5112 104.54 71.2474 104.049 71.82C103.804 72.0654 103.558 72.229 103.313 72.3926C103.804 72.5562 104.213 72.9652 104.54 73.456C104.785 73.7832 104.949 74.274 105.031 74.8466C105.112 75.1738 105.112 75.501 105.112 75.8282C105.112 76.728 104.949 77.4642 104.622 78.1186C104.376 78.6094 103.967 79.0184 103.476 79.2638C102.904 79.591 102.413 79.7546 101.84 79.7546H97.8323V79.8364ZM100.204 71.411H101.104C101.759 71.411 102.249 71.0838 102.413 70.4294C102.495 70.184 102.577 69.8568 102.577 69.5296C102.577 68.9571 102.413 68.4663 102.168 68.2209C101.922 67.9755 101.595 67.8119 101.104 67.8119H100.204V71.411ZM100.204 77.7096H101.104C101.84 77.7096 102.331 77.3006 102.577 76.5644C102.658 76.319 102.74 75.9918 102.74 75.6646C102.74 74.8466 102.577 74.274 102.249 73.9468C102.004 73.6196 101.595 73.456 101.022 73.456H100.123V77.7096H100.204Z" fill="#FAF7F2"/>
<path d="M110.348 80C109.366 80 108.63 79.6728 107.975 79.0184C107.321 78.364 106.994 77.546 106.994 76.6462V65.6033H109.121V76.5644C109.121 76.8916 109.202 77.2188 109.448 77.4642C109.693 77.7096 110.02 77.7914 110.348 77.7914C110.675 77.7914 111.002 77.7096 111.247 77.4642C111.493 77.2188 111.575 76.9734 111.575 76.5644V65.6033H113.783V76.6462C113.783 77.6278 113.456 78.364 112.802 79.0184C112.065 79.6728 111.247 80 110.348 80Z" fill="#FAF7F2"/>
<path d="M119.018 65.6033C120.245 65.6033 121.063 65.9305 121.636 66.5849C122.127 67.1575 122.372 67.9755 122.372 68.9571V71.0838C122.372 72.0654 121.963 72.9652 121.227 73.6196L122.781 79.8364H120.491L119.182 74.4376C119.1 74.4376 119.1 74.4376 119.018 74.4376H117.791V79.8364H115.665V65.6033H119.018ZM120.327 69.0389C120.327 68.2209 119.918 67.8119 119.1 67.8119H117.791V72.3926H119.1C119.427 72.3926 119.755 72.3108 120 72.0654C120.245 71.82 120.327 71.4928 120.327 71.1656V69.0389Z" fill="#FAF7F2"/>
<path d="M127.689 80C126.708 80 125.971 79.6728 125.235 79.0184C124.581 78.364 124.254 77.546 124.254 76.6462V68.8753C124.254 67.8937 124.581 67.1575 125.235 66.5031C125.89 65.8487 126.708 65.5215 127.607 65.5215C128.589 65.5215 129.325 65.8487 129.98 66.5031C130.634 67.1575 130.961 67.9755 130.961 68.8753V70.5112H128.753V68.8753C128.753 68.5481 128.671 68.2209 128.425 67.9755C128.18 67.7301 127.853 67.6483 127.526 67.6483C127.198 67.6483 126.871 67.7301 126.626 67.9755C126.38 68.2209 126.299 68.5481 126.299 68.8753V76.6462C126.299 76.9734 126.38 77.3006 126.626 77.546C126.871 77.7914 127.117 77.8732 127.526 77.8732C127.853 77.8732 128.18 77.7914 128.425 77.546C128.671 77.3006 128.753 77.0552 128.753 76.6462V73.865H127.526V71.7382H130.961V76.728C130.961 77.7096 130.634 78.4458 129.98 79.1002C129.407 79.6728 128.671 80 127.689 80Z" fill="#FAF7F2"/>
<path d="M133.006 79.8364V65.6033H139.141V67.7301H135.215V71.5746H138.078V73.7014H135.215V77.6278H139.141V79.7546H133.006V79.8364Z" fill="#FAF7F2"/>
<path d="M143.967 65.6033C145.194 65.6033 146.012 65.9305 146.585 66.5849C147.076 67.1575 147.321 67.9755 147.321 68.9571V71.0838C147.321 72.0654 146.912 72.9652 146.176 73.6196L147.73 79.8364H145.44L144.131 74.4376C144.049 74.4376 143.967 74.4376 143.967 74.4376H142.74V79.8364H140.614V65.6033H143.967ZM145.194 69.0389C145.194 68.2209 144.785 67.8119 143.967 67.8119H142.659V72.3926H143.967C144.295 72.3926 144.622 72.3108 144.867 72.0654C145.113 71.82 145.194 71.4928 145.194 71.1656V69.0389Z" fill="#FAF7F2"/>
<path d="M155.174 79.8364V65.6033H158.364C159.182 65.6033 160 65.8487 160.654 66.2577C161.227 66.6667 161.636 67.2393 161.881 68.0573C162.045 68.4663 162.045 68.9571 162.045 69.5296C162.045 70.5112 161.8 71.2474 161.309 71.82C161.063 72.0654 160.818 72.229 160.573 72.3926C161.063 72.5562 161.472 72.9652 161.8 73.456C162.045 73.7832 162.209 74.274 162.29 74.8466C162.372 75.1738 162.372 75.501 162.372 75.8282C162.372 76.728 162.209 77.4642 161.881 78.1186C161.636 78.6094 161.227 79.0184 160.736 79.2638C160.164 79.591 159.673 79.7546 159.1 79.7546H155.174V79.8364ZM157.464 71.411H158.364C159.018 71.411 159.509 71.0838 159.673 70.4294C159.755 70.184 159.836 69.8568 159.836 69.5296C159.836 68.9571 159.673 68.4663 159.427 68.2209C159.182 67.9755 158.855 67.8119 158.364 67.8119H157.464V71.411ZM157.464 77.7096H158.364C159.1 77.7096 159.591 77.3006 159.836 76.5644C159.918 76.319 160 75.9918 160 75.6646C160 74.8466 159.836 74.274 159.509 73.9468C159.264 73.6196 158.855 73.456 158.282 73.456H157.382V77.7096H157.464Z" fill="#FAF7F2"/>
<path d="M166.38 79.8364H164.254V65.6033H166.38V79.8364Z" fill="#FAF7F2"/>
<path d="M175.297 76.2372C175.297 77.2188 175.051 78.0368 174.56 78.773C174.233 79.2638 173.742 79.591 173.088 79.7546C172.761 79.8364 172.352 79.9182 171.861 79.9182C171.043 79.9182 170.307 79.6728 169.734 79.2638C169.243 78.9366 168.916 78.4458 168.671 77.8732C168.425 77.3006 168.262 76.6462 168.18 75.8282L170.225 75.6646C170.307 76.4826 170.552 77.0552 170.879 77.4642C171.125 77.7096 171.452 77.8732 171.779 77.8732C172.27 77.8732 172.597 77.6278 172.924 77.2188C173.088 76.9734 173.17 76.6462 173.17 76.2372C173.17 75.6646 172.924 75.092 172.352 74.4376C171.943 74.0286 171.288 73.456 170.47 72.638C169.734 71.9836 169.243 71.3292 168.998 70.7566C168.671 70.1841 168.507 69.4479 168.507 68.7935C168.507 67.4847 168.916 66.5031 169.816 65.8487C170.389 65.4397 171.043 65.2761 171.779 65.2761C172.515 65.2761 173.17 65.4397 173.742 65.7669C174.151 66.0123 174.479 66.4213 174.806 66.9121C175.051 67.4029 175.215 67.9755 175.297 68.5481L173.252 68.9571C173.17 68.3845 173.006 67.8937 172.761 67.5665C172.597 67.3211 172.27 67.2393 171.943 67.2393C171.534 67.2393 171.288 67.4029 171.043 67.7301C170.879 67.9755 170.798 68.3845 170.798 68.7935C170.798 69.4479 171.043 70.1023 171.616 70.7566C171.861 71.002 172.106 71.3292 172.597 71.6564C173.088 72.0654 173.415 72.3926 173.579 72.5562C174.07 73.047 174.479 73.6196 174.806 74.1104C174.969 74.3558 175.051 74.6012 175.133 74.7648C175.133 75.4192 175.297 75.8282 175.297 76.2372Z" fill="#FAF7F2"/>
<path d="M179.059 67.7301H176.769V65.6033H183.476V67.7301H181.186V79.8364H179.059V67.7301Z" fill="#FAF7F2"/>
<path d="M188.548 65.6033C189.775 65.6033 190.593 65.9305 191.166 66.5849C191.657 67.1575 191.902 67.9755 191.902 68.9571V71.0838C191.902 72.0654 191.493 72.9652 190.757 73.6196L192.311 79.8364H190.021L188.712 74.4376C188.63 74.4376 188.63 74.4376 188.548 74.4376H187.321V79.8364H185.194V65.6033H188.548ZM189.857 69.0389C189.857 68.2209 189.448 67.8119 188.63 67.8119H187.321V72.3926H188.63C188.957 72.3926 189.284 72.3108 189.53 72.0654C189.775 71.82 189.857 71.4928 189.857 71.1656V69.0389Z" fill="#FAF7F2"/>
<path d="M197.219 65.4397C198.2 65.4397 198.937 65.7669 199.673 66.4213C200.327 67.0757 200.654 67.8937 200.654 68.7935V76.5644C200.654 77.546 200.327 78.2822 199.673 79.0184C199.018 79.6728 198.2 80 197.301 80C196.319 80 195.583 79.6728 194.928 79.0184C194.274 78.364 193.947 77.546 193.947 76.6462V68.8753C193.947 67.8937 194.274 67.1575 194.928 66.4213C195.501 65.7669 196.319 65.4397 197.219 65.4397ZM198.446 68.7935C198.446 68.4663 198.364 68.1391 198.119 67.8937C197.873 67.6483 197.628 67.5665 197.219 67.5665C196.892 67.5665 196.564 67.6483 196.319 67.8937C196.074 68.1391 195.992 68.3845 195.992 68.7935V76.5644C195.992 76.8916 196.074 77.2188 196.319 77.4642C196.564 77.7096 196.892 77.7914 197.219 77.7914C197.546 77.7914 197.873 77.7096 198.119 77.4642C198.364 77.2188 198.446 76.9734 198.446 76.5644V68.7935Z" fill="#FAF7F2"/>
<path d="M204.417 67.7301H202.127V65.6033H208.834V67.7301H206.544V79.8364H204.417V67.7301Z" fill="#FAF7F2"/>
<path d="M211.616 75.6646C211.616 74.7648 212.352 73.9468 213.333 73.9468C214.233 73.9468 215.051 74.683 215.051 75.6646C215.051 76.5644 214.315 77.3006 213.333 77.3006C212.352 77.3006 211.616 76.5644 211.616 75.6646Z" fill="#FAF7F2"/>
<path d="M217.096 49.8978H89.6523V51.2883H217.096V49.8978Z" fill="#FAF7F2"/>
<path d="M217.096 54.9693H89.6523V56.3599H217.096V54.9693Z" fill="#FAF7F2"/>
<path d="M218.814 0H87.9346V1.39059H218.814V0Z" fill="#FAF7F2"/>
<path d="M218.814 4.98978H87.9345V6.38037H218.814V4.98978Z" fill="#FAF7F2"/>
<path d="M34.7648 59.1411C39.6728 60.6953 44.6626 58.7321 47.362 54.4785C49.8978 50.2249 49.3252 44.8262 45.8896 41.3906C43.1902 38.2822 38.6094 37.4642 34.7648 38.6912V59.1411Z" fill="#FAF7F2"/>
<path d="M44.5808 27.4029C44.3354 22.4949 39.6728 18.8139 34.8466 20.1227V34.9284C39.6728 36.5644 44.7444 32.4744 44.5808 27.4029Z" fill="#FAF7F2"/>
<path d="M48.5072 35.3374C52.1881 29.7751 51.2883 22.1677 46.4622 17.5051C41.636 12.9243 34.0286 12.5153 28.6299 16.5235V53.9059C29.5296 55.7055 30.6748 57.0961 32.3926 58.0777V18.5685C37.137 16.1145 43.1084 17.9141 45.8078 22.4949C48.5072 27.1575 46.953 33.3742 42.454 36.2372C49.3251 38.5276 53.0879 45.8896 50.9611 52.7607C48.8344 59.4683 41.7178 63.4765 34.9284 61.7587V65.6033C40.409 66.6667 46.2986 64.8671 50.3067 60.8589C56.8507 54.3149 56.9325 43.5174 50.5521 36.8916C49.8159 36.319 49.2433 35.8282 48.5072 35.3374Z" fill="#FAF7F2"/>
<path d="M39.9182 0C17.8323 0 0 17.8323 0 39.9182C0 61.9223 17.8323 79.8364 39.9182 79.8364C61.9223 79.8364 79.8364 62.0041 79.8364 39.9182C79.8364 17.8323 61.9223 0 39.9182 0ZM39.9182 76.4826C19.7137 76.4826 3.27198 60.0409 3.27198 39.9182C3.27198 19.7137 19.7137 3.27198 39.9182 3.27198C60.1227 3.27198 76.4826 19.7137 76.4826 39.8364C76.4826 60.0409 60.0409 76.4826 39.9182 76.4826Z" fill="#FAF7F2"/>
<path d="M39.9182 5.48057C20.9407 5.48057 5.48053 20.9407 5.48053 39.9182C5.48053 58.8957 20.9407 74.3558 39.9182 74.3558C58.8957 74.3558 74.3558 58.8957 74.3558 39.9182C74.274 20.9407 58.8957 5.48057 39.9182 5.48057ZM52.5971 62.1677C47.6891 67.6483 39.5092 69.9386 32.3108 67.6483V60.9407C29.6114 59.6319 27.4846 57.5051 26.094 54.4785V15.2147C31.2474 10.0613 41.1452 9.97955 47.1983 14.7239C53.1697 19.3047 55.0511 27.8937 51.7791 34.7648L52.0245 35.092C53.8241 36.8916 55.2965 38.9366 56.2781 41.4724C59.0593 48.2618 57.7505 56.5235 52.5971 62.1677Z" fill="#FAF7F2"/>
</svg>
